<svg width="45" height="41" viewBox="0 0 45 41" fill="none" xmlns="http://www.w3.org/2000/svg">
<g clip-path="url(#clip0_1_6770)">
<path d="M6.75795 19.9419C6.86491 19.6955 7.09677 19.3206 7.41654 18.8794C7.73694 18.4366 8.14599 17.9215 8.61164 17.3676C9.54253 16.2588 10.6997 14.9925 11.8393 13.8044C12.9788 12.6162 14.102 11.5047 14.9611 10.709C15.3899 10.3112 15.7546 9.99174 16.0114 9.78933C16.1379 9.68837 16.2409 9.61574 16.2904 9.58764C16.3129 9.57371 16.325 9.57123 16.2902 9.58626C16.2711 9.59317 16.2402 9.60582 16.1721 9.61595C16.1376 9.62021 16.0936 9.62406 16.0337 9.62059C15.9746 9.61679 15.8983 9.60518 15.8119 9.57303C15.7386 9.54585 15.6754 9.50773 15.6312 9.47237C15.5865 9.43677 15.5589 9.40511 15.5407 9.38217C15.5232 9.35946 15.5146 9.34465 15.5113 9.33762C15.5071 9.33089 15.5076 9.33172 15.5092 9.33746C15.5189 9.3649 15.5436 9.477 15.5562 9.63075C15.5839 9.94173 15.5772 10.424 15.5421 10.9988C15.4719 12.1522 15.2913 13.6895 15.1068 15.2349C14.9223 16.7822 14.7333 18.3374 14.6461 19.5615C14.6028 20.1756 14.5834 20.7031 14.6072 21.1345C14.6209 21.3523 14.6416 21.5439 14.6952 21.7432C14.7233 21.8444 14.7585 21.9484 14.8297 22.0736C14.8658 22.1361 14.9121 22.205 14.9784 22.2784C15.0449 22.3511 15.1345 22.43 15.252 22.4984C15.3832 22.5757 15.5297 22.6288 15.6651 22.6557C15.8016 22.6838 15.9255 22.6878 16.0306 22.6807C16.2419 22.6652 16.3834 22.615 16.4871 22.576C17.502 22.1848 18.3424 21.5842 19.0854 20.9037C19.8282 20.2218 20.4779 19.4565 21.109 18.7046C21.7393 17.9531 22.3505 17.2142 22.9919 16.5831C23.6334 15.9514 24.3029 15.4311 25.0345 15.0878C24.5307 14.7676 24.0264 14.4472 23.5224 14.1276C23.5159 14.1803 23.499 14.2817 23.4722 14.4096C23.446 14.5377 23.4102 14.6949 23.3686 14.8737C23.2839 15.2306 23.1723 15.6743 23.0479 16.1716C22.799 17.1661 22.4998 18.3739 22.2604 19.5678C22.1407 20.1651 22.0361 20.7597 21.9592 21.3264C21.883 21.8933 21.8351 22.4312 21.8322 22.927C21.8317 23.4245 21.867 23.8725 22.0083 24.3133C22.0818 24.5331 22.1845 24.7584 22.3668 24.9848C22.4578 25.0971 22.571 25.2087 22.7082 25.3076C22.8442 25.406 23.0043 25.4899 23.1723 25.5472C23.1795 25.55 23.1862 25.5519 23.1934 25.5546C23.3674 25.6116 23.542 25.64 23.7038 25.6482C23.867 25.6555 24.0173 25.6431 24.1568 25.6197C24.4369 25.5726 24.6769 25.4838 24.9074 25.376C25.3653 25.1594 25.7955 24.8585 26.2481 24.5024C27.1458 23.792 28.1141 22.8521 29.0764 21.9659C29.5566 21.5234 30.0327 21.0954 30.4882 20.7218C30.942 20.3483 31.376 20.0295 31.7553 19.8074C31.9444 19.6968 32.1186 19.6101 32.2687 19.5508C32.4186 19.4908 32.5425 19.4595 32.6266 19.4484C32.7117 19.4364 32.7504 19.4428 32.7644 19.4436C32.7788 19.4471 32.7788 19.4407 32.8156 19.4662C32.7639 19.4209 32.7487 19.394 32.747 19.3907C32.7472 19.3902 32.7472 19.3902 32.7479 19.3904C32.7479 19.3904 32.7483 19.3912 32.7487 19.392C32.7503 19.3939 32.753 19.3969 32.7552 19.4009C32.7607 19.4101 32.7676 19.423 32.7768 19.4406C32.8118 19.5116 32.8603 19.6475 32.9054 19.8239C32.9972 20.1785 33.0772 20.6942 33.1388 21.3012C33.2331 22.2263 33.2881 23.3688 33.3342 24.5838C33.3801 25.7999 33.4135 27.0896 33.4438 28.3172C33.4747 29.5448 33.5011 30.7093 33.5299 31.6769C33.5593 32.6447 33.5897 33.4132 33.6329 33.8567C33.6521 34.052 34.0199 34.0767 34.0283 33.8833C34.0466 33.4633 34.1248 32.7098 34.2298 31.7615C34.3352 30.8126 34.4673 29.6672 34.5876 28.4525C34.7089 27.2388 34.8179 25.9556 34.8806 24.7313C34.9442 23.5066 34.9574 22.3412 34.909 21.3546C34.8762 20.7033 34.8186 20.1325 34.7152 19.647C34.6627 19.4036 34.6006 19.1811 34.5086 18.9651C34.4616 18.8567 34.4073 18.7495 34.3343 18.6389C34.2619 18.5286 34.1709 18.4138 34.0391 18.3009C33.7863 18.0811 33.4712 17.9115 33.148 17.8222C32.8233 17.7311 32.5015 17.7168 32.2063 17.7467C31.9102 17.7775 31.6352 17.8504 31.3693 17.9466C31.1036 18.0442 30.8474 18.1666 30.592 18.3079C30.0836 18.5908 29.5807 18.9495 29.0748 19.3496C28.5703 19.7501 28.065 20.1921 27.5677 20.6403C26.5755 21.5351 25.6104 22.4582 24.8137 23.0836C24.4189 23.3956 24.0625 23.6301 23.8201 23.7417C23.7014 23.7981 23.6133 23.8218 23.5899 23.8244C23.5866 23.8251 23.5851 23.8252 23.5843 23.8255C23.5851 23.8252 23.5843 23.8255 23.5858 23.8254C23.5882 23.8251 23.5957 23.8247 23.6081 23.8256C23.6318 23.8262 23.6752 23.8318 23.7248 23.8487C23.7267 23.8494 23.7289 23.8496 23.7309 23.8503C23.7885 23.8696 23.8477 23.9011 23.8909 23.9329C23.9349 23.9643 23.9636 23.9951 23.9778 24.0127C23.985 24.0212 23.9894 24.0274 23.9907 24.0298C23.9916 24.0314 23.9916 24.0314 23.9916 24.0314C23.9916 24.0314 23.9907 24.0298 23.9892 24.0279C23.985 24.0193 23.9753 23.9976 23.9638 23.9631C23.915 23.8259 23.8697 23.5101 23.8734 23.1167C23.8743 22.3208 24.034 21.2013 24.2578 20.0522C24.4803 18.9007 24.7639 17.7106 25.0015 16.7157C25.1201 16.2182 25.2278 15.7692 25.3121 15.3935C25.3544 15.2053 25.3905 15.0354 25.4194 14.8846C25.4487 14.7326 25.4707 14.6016 25.4848 14.476C25.5038 14.2996 25.4642 14.1324 25.3811 13.9814C25.2987 13.8301 25.1711 13.6963 25.016 13.5989C24.8612 13.501 24.6795 13.4404 24.4986 13.4251C24.317 13.4095 24.1347 13.4372 23.9727 13.5157C22.9985 13.9885 22.2024 14.6456 21.494 15.363C20.7864 16.0821 20.1638 16.8667 19.552 17.6227C18.9418 18.3786 18.3421 19.1065 17.7041 19.7151C17.0663 20.3251 16.3938 20.8121 15.6409 21.1191C15.6391 21.1197 15.638 21.1206 15.638 21.1206C15.6372 21.1209 15.6378 21.1211 15.6372 21.1209C15.6378 21.1211 15.6411 21.1205 15.647 21.1188C15.6584 21.1161 15.6812 21.1113 15.7204 21.1082C15.7593 21.1062 15.8166 21.1068 15.8866 21.1212C15.9552 21.135 16.036 21.1644 16.1023 21.2043C16.1923 21.2564 16.255 21.3136 16.2966 21.3595C16.3382 21.4055 16.3612 21.4412 16.3749 21.4662C16.3894 21.491 16.3945 21.5051 16.3974 21.5114C16.3976 21.5127 16.3977 21.5142 16.3982 21.515C16.3977 21.5142 16.3965 21.5117 16.3956 21.5081C16.3834 21.4753 16.361 21.357 16.3486 21.197C16.3217 20.8741 16.3248 20.3796 16.3529 19.7937C16.4075 18.6183 16.5539 17.063 16.6963 15.5086C16.8386 13.9523 16.9766 12.3957 17.015 11.184C17.0336 10.5759 17.0292 10.058 16.981 9.63973C16.9558 9.42856 16.9232 9.24476 16.8528 9.05432C16.8158 8.95877 16.7702 8.85864 16.6834 8.7448C16.64 8.68789 16.5851 8.62788 16.5111 8.56898C16.4382 8.51113 16.3451 8.45528 16.2391 8.4157C16.1453 8.38139 16.0614 8.36817 15.993 8.3634C15.9244 8.3592 15.8697 8.3635 15.824 8.36989C15.734 8.38262 15.6771 8.40276 15.629 8.42112C15.5351 8.45804 15.4741 8.49463 15.4104 8.53465C15.2862 8.614 15.1627 8.71098 15.0162 8.83325C14.7274 9.07678 14.3609 9.41862 13.9331 9.83928C13.0791 10.6806 11.9853 11.8328 10.876 13.0652C9.76743 14.2979 8.64464 15.6093 7.73645 16.7665C7.2825 17.3447 6.88209 17.8843 6.56214 18.3594C6.24176 18.8356 6.00269 19.2412 5.8667 19.58C5.69683 20.004 6.57606 20.3603 6.75795 19.9419Z" fill="#9A80E9"/>
</g>
<defs>
<clipPath id="clip0_1_6770">
<rect width="34.9013" height="29.9996" fill="white" transform="translate(11.4258 0.0114746) rotate(20.7784)"/>
</clipPath>
</defs>
</svg>
