<svg width="53" height="53" viewBox="0 0 53 53" fill="none" xmlns="http://www.w3.org/2000/svg">
<path fill-rule="evenodd" clip-rule="evenodd" d="M46.4555 4.4351C46.7702 4.10261 47.2951 4.08824 47.6275 4.40304C49.09 5.78767 49.5266 7.44784 49.6468 9.0231C49.7044 9.77488 49.6912 10.5293 49.6791 11.2237C49.6786 11.2469 49.6783 11.2701 49.6778 11.2932C49.6652 12.0234 49.6566 12.6806 49.7157 13.2874C49.7601 13.7431 49.4266 14.1485 48.9711 14.1929C48.5153 14.2373 48.1099 13.9038 48.0655 13.4481C47.9956 12.731 48.0077 11.9785 48.0201 11.2645L48.0209 11.2253C48.0332 10.5087 48.0451 9.82237 47.9938 9.14941C47.8906 7.80043 47.5396 6.60316 46.4875 5.60704C46.155 5.29227 46.1408 4.76757 46.4555 4.4351Z" fill="#9A80E9"/>
<path fill-rule="evenodd" clip-rule="evenodd" d="M41.5615 4.21337C41.8632 3.86924 42.3871 3.83507 42.7312 4.13707C44.6452 5.81662 44.9971 7.91372 45.1402 9.82214C45.1663 10.1694 45.1851 10.5006 45.2034 10.8228C45.2374 11.4201 45.2694 11.986 45.3424 12.5644C45.451 13.4247 45.6408 14.2001 46.0179 14.8974C46.2356 15.3003 46.0858 15.8032 45.6829 16.0209C45.2803 16.2386 44.7773 16.0887 44.5594 15.6859C44.0476 14.7392 43.8196 13.7398 43.6974 12.7719C43.6179 12.1405 43.5795 11.4715 43.5429 10.8371C43.5253 10.5292 43.508 10.2294 43.4866 9.9461C43.3512 8.13834 43.0399 6.61374 41.6376 5.38327C41.2935 5.08129 41.2594 4.55749 41.5615 4.21337Z" fill="#9A80E9"/>
<path fill-rule="evenodd" clip-rule="evenodd" d="M36.7091 3.94293C37.0253 3.61183 37.5502 3.59981 37.8811 3.91606C39.79 5.73934 40.5798 8.0597 41.1547 10.2697C41.2816 10.7567 41.3974 11.2342 41.5109 11.7012C41.928 13.4191 42.3105 14.9947 43.0685 16.3781C43.2885 16.7797 43.1415 17.2834 42.7399 17.5034C42.3383 17.7234 41.8346 17.5764 41.6146 17.1748C40.7399 15.579 40.2914 13.723 39.8697 11.9777C39.7637 11.5385 39.6592 11.1064 39.5501 10.6872C38.9897 8.53341 38.2925 6.60172 36.7359 5.11503C36.4047 4.79879 36.3929 4.27401 36.7091 3.94293Z" fill="#9A80E9"/>
<path fill-rule="evenodd" clip-rule="evenodd" d="M33.0978 4.58341C33.4782 4.32842 33.9931 4.43002 34.2482 4.81031C35.609 6.83981 36.3624 8.86644 37.0732 10.7787C37.2236 11.1831 37.3722 11.5823 37.5238 11.9754C38.3997 14.2421 39.4206 16.4162 41.5986 18.5928C41.9223 18.9165 41.9225 19.4414 41.5988 19.7654C41.2751 20.0891 40.7502 20.0893 40.4263 19.7656C38.0123 17.3527 36.8891 14.9327 35.9773 12.573C35.812 12.1448 35.6544 11.7222 35.4986 11.3037C34.7898 9.40169 34.1133 7.58648 32.8711 5.73363C32.616 5.35335 32.7176 4.83837 33.0978 4.58341Z" fill="#9A80E9"/>
<path fill-rule="evenodd" clip-rule="evenodd" d="M28.3333 4.73573C28.6936 4.45325 29.2146 4.51631 29.497 4.87661C34.3182 11.0255 36.1915 16.2383 36.1012 22.9684C36.0951 23.4262 35.719 23.7925 35.2612 23.7863C34.8034 23.7801 34.4371 23.404 34.4433 22.9462C34.5279 16.6469 32.8145 11.7946 28.1922 5.89965C27.9097 5.53935 27.9729 5.01823 28.3333 4.73573Z" fill="#9A80E9"/>
<path fill-rule="evenodd" clip-rule="evenodd" d="M22.8746 5.79218C23.0583 5.37281 23.5472 5.18182 23.9666 5.36554C26.4016 6.4324 28.0266 7.89113 29.1171 9.58736C30.1991 11.2703 30.725 13.1401 31.0402 14.9842C31.2339 16.1185 31.3559 17.3119 31.4722 18.4488C31.5403 19.1145 31.6066 19.7612 31.684 20.365C31.9019 22.067 32.2174 23.5504 32.8808 24.7575C33.1013 25.1585 32.9548 25.6628 32.5537 25.8833C32.1524 26.1038 31.6484 25.9573 31.4279 25.556C30.6074 24.0631 30.2628 22.3203 30.0394 20.5757C29.9499 19.8785 29.8805 19.195 29.8117 18.5161C29.7018 17.4316 29.593 16.3594 29.4057 15.2635C29.1091 13.5272 28.6348 11.9029 27.7225 10.4841C26.819 9.07858 25.4553 7.82797 23.3012 6.88421C22.8819 6.70047 22.6908 6.21157 22.8746 5.79218Z" fill="#9A80E9"/>
<path fill-rule="evenodd" clip-rule="evenodd" d="M17.9588 5.76003C18.0745 5.31704 18.5275 5.05176 18.9704 5.16752C20.8559 5.66016 22.3254 7.0647 23.4666 8.79861C24.6123 10.5392 25.4883 12.7026 26.1588 14.8875C27.5008 19.2608 28.0684 23.8877 28.2565 25.8199C28.3008 26.2754 27.9673 26.6808 27.5116 26.7252C27.0561 26.7696 26.6506 26.4361 26.6063 25.9803C26.4222 24.0892 25.8675 19.5902 24.5737 15.3738C23.9263 13.264 23.106 11.2665 22.0817 9.71015C21.0529 8.14709 19.8787 7.1185 18.5513 6.77169C18.1083 6.65593 17.843 6.20301 17.9588 5.76003Z" fill="#9A80E9"/>
<path fill-rule="evenodd" clip-rule="evenodd" d="M13.8074 5.07867C14.0206 4.67349 14.5219 4.51783 14.9271 4.73101C18.4613 6.59045 20.0962 9.18845 21.0725 11.8732C21.5254 13.1186 21.8394 14.3907 22.1347 15.5871C22.1526 15.6596 22.1704 15.7318 22.1882 15.8035C22.5041 17.0808 22.8062 18.2608 23.2448 19.3333C23.4182 19.7571 23.2151 20.2412 22.7914 20.4145C22.3676 20.5878 21.8836 20.3848 21.7102 19.9611C21.219 18.7602 20.8913 17.4659 20.5787 16.2015C20.5626 16.1365 20.5466 16.0715 20.5305 16.0068C20.2304 14.7914 19.9359 13.5991 19.5143 12.4398C18.6417 10.0403 17.2383 7.82048 14.1551 6.19833C13.7499 5.98515 13.5942 5.48387 13.8074 5.07867Z" fill="#9A80E9"/>
<path fill-rule="evenodd" clip-rule="evenodd" d="M10.6528 5.42152C10.9496 5.07291 11.4728 5.03087 11.8215 5.32764C14.617 7.70737 15.9164 10.3508 17.1682 12.897C17.3648 13.297 17.5602 13.6946 17.7601 14.0884C17.9674 14.4967 17.8044 14.9957 17.3961 15.2029C16.9879 15.4102 16.4889 15.2471 16.2817 14.8389C16.0691 14.42 15.8653 14.007 15.6644 13.5996C14.4099 11.0564 13.2638 8.73292 10.7467 6.59016C10.3981 6.29339 10.3561 5.77016 10.6528 5.42152Z" fill="#9A80E9"/>
<path fill-rule="evenodd" clip-rule="evenodd" d="M7.33765 6.25612C7.5949 5.87738 8.11047 5.77888 8.48924 6.03613C9.87526 6.97757 10.8729 8.03174 11.7304 9.0936C12.1237 9.58062 12.4914 10.0743 12.848 10.5531C12.8772 10.5922 12.9062 10.6312 12.9352 10.6702C13.3227 11.19 13.7003 11.6929 14.1071 12.1831C14.3994 12.5355 14.3508 13.0581 13.9984 13.3505C13.646 13.6428 13.1234 13.5942 12.831 13.2418C12.3936 12.7145 11.9926 12.1799 11.6058 11.6609C11.5777 11.6232 11.5497 11.5856 11.5217 11.5481C11.1615 11.0644 10.8124 10.5959 10.4405 10.1353C9.64558 9.15099 8.76458 8.22748 7.55763 7.40771C7.17889 7.15046 7.08039 6.63486 7.33765 6.25612Z" fill="#9A80E9"/>
<path fill-rule="evenodd" clip-rule="evenodd" d="M3.53153 6.17751C3.8529 5.85142 4.37781 5.8476 4.70391 6.16898L8.39298 9.80476C8.71908 10.1261 8.7229 10.651 8.40152 10.9771C8.08014 11.3032 7.55526 11.307 7.22914 10.9857L3.54006 7.34989C3.21397 7.02849 3.21015 6.50361 3.53153 6.17751Z" fill="#9A80E9"/>
</svg>
