<svg width="59" height="58" viewBox="0 0 59 58" fill="none" xmlns="http://www.w3.org/2000/svg">
<path d="M8.41804 24.9004C8.8936 22.741 9.53679 20.1504 10.6738 18.0056C11.2412 16.9338 11.9299 15.9757 12.7702 15.2304C13.6117 14.4851 14.6 13.9481 15.8021 13.7026C16.7459 13.5146 17.3636 13.6575 17.8297 13.9626C18.2951 14.27 18.6421 14.7913 18.8892 15.4679C19.3884 16.8156 19.434 18.6992 19.4565 20.0806C19.4603 20.3159 19.6318 20.532 19.8567 20.5883C20.0796 20.6525 20.3363 20.5523 20.463 20.3418C21.093 19.2981 22.0429 17.7298 23.1684 16.1356C24.2922 14.5436 25.5965 12.9257 26.8971 11.8044C27.5459 11.2426 28.1925 10.8069 28.7935 10.5513C29.3971 10.2935 29.9384 10.2158 30.4336 10.3138C30.9282 10.4151 31.4181 10.6875 31.933 11.2786C32.4445 11.8686 32.9582 12.7783 33.4224 14.0741C33.8094 15.1538 33.8346 16.1862 33.8352 17.4495C33.8352 17.7287 34.0135 17.9876 34.2649 18.0867C34.5136 18.1925 34.8221 18.134 35.0222 17.9313C36.3984 16.5375 38.4105 14.7384 40.5049 13.6643C41.5506 13.1261 42.6106 12.7715 43.6039 12.7062C44.6009 12.6432 45.5234 12.8447 46.4213 13.447C46.4973 13.4977 46.5733 13.5528 46.6492 13.6102C47.1302 13.9773 47.4714 14.359 47.7118 14.7519C47.9515 15.1459 48.0933 15.5513 48.1606 15.9825C48.2951 16.8415 48.1154 17.821 47.71 18.8342C46.9064 20.8619 45.2222 22.9459 43.9767 24.3341C43.7816 24.5514 43.7343 24.8723 43.8497 25.1278C43.959 25.3868 44.226 25.5703 44.52 25.5748C45.4475 25.5894 46.4689 25.5173 47.492 25.4813C48.514 25.4453 49.5351 25.4453 50.4257 25.5849C51.3199 25.7234 52.0629 25.997 52.5949 26.4518C52.8631 26.6804 53.0875 26.9551 53.2699 27.3098C53.4517 27.6655 53.5905 28.1046 53.6639 28.6563C53.7793 29.4871 53.5366 30.5894 52.984 31.7412C52.4355 32.8928 51.593 34.0896 50.6014 35.1423C49.6111 36.195 48.4708 37.106 47.3502 37.7058C46.2291 38.3106 45.1384 38.5898 44.2605 38.484C44.0541 38.4614 43.9425 38.4164 43.9283 38.4051C43.9263 38.4051 43.9268 38.4051 43.9263 38.404C43.9268 38.4051 43.9289 38.4063 43.9318 38.4086C43.9379 38.4129 43.948 38.4219 43.9596 38.4344C43.9837 38.4602 44.0124 38.5063 44.0272 38.5538C44.0428 38.6011 44.0448 38.6449 44.0431 38.6687C44.0422 38.68 44.0408 38.6878 44.0402 38.691C44.0399 38.6921 44.0399 38.691 44.0399 38.6921C44.0399 38.691 44.0405 38.6898 44.0414 38.6878C44.0477 38.6663 44.0869 38.5898 44.1585 38.5008C44.3006 38.3173 44.5626 38.0853 44.8221 37.9131C44.9517 37.8253 45.0807 37.7522 45.1889 37.7003C45.2956 37.6484 45.3854 37.6215 45.4054 37.6183C45.8937 37.5246 46.2944 37.5156 46.6133 37.5606C46.9328 37.6046 47.1699 37.6992 47.3575 37.8206C47.5442 37.9436 47.6863 38.0955 47.8011 38.2891C47.915 38.4817 47.9982 38.7168 48.0426 38.987C48.1333 39.5274 48.0577 40.2064 47.8167 40.8605C47.5778 41.5169 47.1783 42.144 46.6753 42.6067C45.1033 44.0627 42.7445 45.2626 40.2295 46.0924C37.7158 46.9256 35.0442 47.3973 32.864 47.4704C32.6799 47.4774 32.3963 47.4446 32.0754 47.3646C31.7533 47.2857 31.3912 47.1631 31.0267 47.0089C30.2973 46.7027 29.5557 46.2626 29.0637 45.8323C28.8175 45.6184 28.6364 45.4079 28.5449 45.2505C28.4985 45.1716 28.4743 45.1084 28.4644 45.069C28.4544 45.0272 28.4568 45.0127 28.4575 45.0061C28.4594 45.0003 28.4578 44.9971 28.4743 44.971C28.491 44.9475 28.5302 44.9014 28.6122 44.8428C28.7741 44.7246 29.1089 44.5703 29.6319 44.4477C29.6725 44.4375 29.7047 44.4306 29.727 44.4274C29.738 44.4262 29.7467 44.4251 29.7522 44.4239C29.7578 44.4239 29.7586 44.4239 29.7595 44.4239C29.7566 44.4193 29.6925 44.4396 29.5235 44.3587C29.4423 44.3169 29.3385 44.2337 29.2681 44.1201C29.1956 44.0061 29.1663 43.878 29.1637 43.7855C29.1634 43.5976 29.2095 43.5434 29.213 43.5278C29.2139 43.5254 29.2144 43.5243 29.2147 43.5231C29.2144 43.5243 29.215 43.5231 29.2147 43.5243C29.2141 43.5254 29.2121 43.5278 29.2086 43.5333C29.2023 43.5425 29.191 43.5582 29.1753 43.5773C29.144 43.6156 29.0965 43.6695 29.0374 43.7304C28.9188 43.8519 28.7546 44.0029 28.5689 44.1604C28.197 44.477 27.7377 44.8246 27.3433 45.0971C27.1464 45.2334 26.9648 45.3517 26.8235 45.4372C26.7532 45.4789 26.6928 45.5126 26.65 45.5352C26.6288 45.5465 26.612 45.5543 26.6025 45.5587C26.5931 45.5633 26.5904 45.5633 26.6025 45.5587C25.0305 46.0924 23.2944 46.6137 21.552 46.9549C19.8099 47.2959 18.0631 47.4536 16.48 47.2802C15.4031 47.1608 14.7564 46.8074 14.3533 46.3716C13.953 45.935 13.7535 45.3653 13.739 44.6695C13.7253 43.978 13.9152 43.1833 14.2736 42.4255C14.6304 41.6667 15.1529 40.9472 15.7643 40.3922C15.9933 40.1829 16.3306 39.9721 16.7377 39.7933C17.1445 39.6144 17.6193 39.4633 18.1181 39.352C19.115 39.1279 20.2128 39.0638 21.0583 39.1673C21.4799 39.2169 21.8376 39.3091 22.0718 39.4161C22.1891 39.4691 22.2744 39.5231 22.326 39.5671C22.3784 39.6109 22.3957 39.6402 22.4014 39.6515C22.4064 39.664 22.4078 39.6616 22.4079 39.6898C22.4069 39.7167 22.3981 39.7776 22.351 39.8788C22.2605 40.0791 22.0062 40.4192 21.5316 40.8303C21.188 41.1307 20.6481 41.4403 19.9867 41.6983C19.3252 41.9584 18.5433 42.1721 17.7122 42.3153C15.9693 42.6203 14.0057 42.6125 12.4556 42.1912C11.6799 41.983 11.0121 41.6746 10.5148 41.2829C10.0159 40.8886 9.68248 40.4282 9.50968 39.8405C9.34135 39.2563 9.34912 38.8171 9.44596 38.4625C9.54526 38.1079 9.73835 37.8128 10.0421 37.5371C10.3445 37.2622 10.7596 37.0202 11.249 36.8256C11.7379 36.6308 12.298 36.4832 12.8767 36.3829C14.0338 36.1814 15.2677 36.1669 16.1609 36.2568C16.6051 36.3009 16.9699 36.3739 17.1592 36.4383C17.2058 36.4539 17.2406 36.4676 17.259 36.4765C17.2773 36.4844 17.2791 36.4879 17.2579 36.4719C17.238 36.4563 17.1897 36.4203 17.1341 36.3243C17.0784 36.2345 17.0327 36.0599 17.0636 35.9057C17.0028 36.2446 16.8599 36.4989 16.6033 36.7479C16.3475 36.9943 15.9663 37.2161 15.4804 37.3872C14.5103 37.7351 13.1462 37.8659 11.7386 37.796C10.3301 37.7284 8.87232 37.4695 7.68871 37.0967C7.0973 36.9111 6.57433 36.6983 6.16633 36.4765C5.75762 36.2571 5.46874 36.0228 5.33758 35.8506C4.66148 34.9791 4.36933 34.0502 4.34176 33.0436C4.3199 32.1587 4.50985 31.2142 4.86133 30.2571C5.21216 29.3001 5.72306 28.3331 6.32326 27.4144C7.52276 25.5748 9.0815 23.9277 10.387 22.9043C10.6195 22.7219 10.3225 22.3064 10.0754 22.4685C8.63003 23.4165 6.88136 24.9612 5.47628 26.8177C4.77429 27.7454 4.15867 28.752 3.7161 29.8046C3.27444 30.8573 3.00423 31.9584 3.0129 33.065C3.02 34.316 3.39287 35.5758 4.24133 36.6917C4.55273 37.097 4.98057 37.4133 5.49023 37.7015C6.00058 37.9862 6.59764 38.2349 7.25501 38.45C8.56891 38.8791 10.1239 39.1696 11.6614 39.2584C13.1999 39.3442 14.7151 39.2337 15.9752 38.7991C16.6047 38.5808 17.1765 38.2755 17.6387 37.8421C18.1002 37.411 18.4403 36.8323 18.5548 36.1658C18.5957 35.9541 18.5386 35.7233 18.4514 35.5781C18.3643 35.4273 18.2645 35.336 18.1746 35.2661C17.9928 35.1322 17.8265 35.0646 17.642 35.0006C17.2773 34.8788 16.8365 34.7979 16.3153 34.7428C15.2776 34.6367 13.9402 34.646 12.6164 34.871C11.9546 34.9846 11.2969 35.1513 10.6816 35.3946C10.0669 35.6378 9.49177 35.9576 9.00899 36.391C8.52769 36.8221 8.14084 37.3805 7.95654 38.0505C7.76989 38.7179 7.79059 39.4712 8.02287 40.2716C8.28711 41.1939 8.84721 41.9471 9.55775 42.502C10.2697 43.0604 11.1273 43.4387 12.0522 43.6887C13.9031 44.1841 16.0418 44.1775 17.9773 43.8441C18.8999 43.6843 19.7756 43.4477 20.5534 43.1427C21.3313 42.8366 22.0124 42.4649 22.5497 41.9999C23.1221 41.4989 23.5189 41.035 23.7562 40.5352C23.8732 40.2853 23.9475 40.0217 23.9579 39.7492C23.9695 39.4781 23.9107 39.2021 23.7929 38.9658C23.6758 38.7281 23.5078 38.5324 23.3214 38.377C23.134 38.2204 22.9271 38.1001 22.7078 38.001C22.2688 37.805 21.7757 37.6913 21.2423 37.6272C20.1774 37.5011 18.9465 37.5797 17.7799 37.8389C17.1969 37.9694 16.6311 38.1451 16.1114 38.3747C15.592 38.6043 15.1169 38.8858 14.7205 39.245C13.9459 39.951 13.3142 40.8245 12.8707 41.7636C12.429 42.7035 12.1724 43.7101 12.1884 44.6964C12.2035 45.6781 12.5094 46.6609 13.2124 47.422C13.9129 48.1865 14.9676 48.6785 16.3122 48.8214C18.1163 49.0174 20.0062 48.8351 21.8495 48.4747C23.6927 48.1146 25.4905 47.5719 27.1001 47.0257C27.2034 46.9897 27.28 46.9526 27.3638 46.9097C27.4463 46.8671 27.5312 46.8187 27.622 46.7636C27.8029 46.6543 28.0069 46.5215 28.2248 46.3704C28.6604 46.0678 29.1489 45.6996 29.5716 45.3403C29.7833 45.1603 29.9784 44.9823 30.1465 44.8101C30.3156 44.6324 30.4568 44.477 30.5817 44.2494C30.6397 44.1311 30.7136 43.987 30.7104 43.7258C30.7067 43.5988 30.6681 43.4364 30.5785 43.297C30.4907 43.1552 30.3614 43.0494 30.246 42.9897C30.0082 42.8714 29.841 42.876 29.6954 42.8769C29.5499 42.8838 29.418 42.9073 29.2733 42.9412C28.6271 43.0978 28.1205 43.2958 27.7141 43.5828C27.5122 43.7269 27.3355 43.896 27.1979 44.0974C27.0601 44.2966 26.9658 44.5297 26.9294 44.7651C26.8919 45.0014 26.9106 45.2357 26.9648 45.4485C27.0191 45.6613 27.1068 45.8561 27.2133 46.0362C27.4276 46.3965 27.7161 46.7082 28.0482 46.9987C28.7132 47.5742 29.5644 48.0682 30.4257 48.4332C30.8566 48.6144 31.2894 48.762 31.7069 48.8655C32.1256 48.9667 32.5265 49.0264 32.9165 49.014C35.2715 48.9331 38.0568 48.4353 40.7142 47.5551C43.3708 46.6722 45.8977 45.4137 47.7182 43.735C48.4235 43.0819 48.9405 42.2567 49.2585 41.3875C49.5745 40.5184 49.696 39.6008 49.5557 38.7382C49.4844 38.3071 49.3449 37.8882 49.1202 37.509C48.8967 37.1295 48.5847 36.7905 48.1936 36.5371C47.8025 36.2817 47.3375 36.1139 46.822 36.0443C46.3054 35.9732 45.7383 35.9967 45.1173 36.1162C44.905 36.1579 44.7189 36.231 44.5296 36.32C44.3414 36.4102 44.1539 36.5192 43.9689 36.6441C43.5995 36.8943 43.2429 37.197 42.9588 37.5551C42.8176 37.7351 42.6921 37.9299 42.6048 38.1677C42.5201 38.4016 42.4711 38.7058 42.5752 39.0264C42.626 39.1841 42.7141 39.334 42.8237 39.4555C42.9336 39.577 43.0614 39.6718 43.1948 39.7448C43.4633 39.8901 43.7517 39.96 44.0851 39.9994C45.4113 40.1478 46.7721 39.7437 48.0713 39.0467C49.3707 38.3465 50.6194 37.3388 51.7072 36.1814C52.7944 35.0229 53.7196 33.7147 54.3496 32.3907C54.9755 31.0666 55.3222 29.7214 55.1582 28.457C55.0651 27.7623 54.8807 27.151 54.6093 26.623C54.3391 26.096 53.9816 25.6547 53.5671 25.3046C52.7338 24.6009 51.7078 24.2666 50.6548 24.1033C49.5983 23.9423 48.4943 23.9502 47.4381 23.9885C46.3834 24.0279 45.3744 24.0988 44.5444 24.0853C44.7256 24.4996 44.9065 24.9128 45.0877 25.326C46.3738 23.8781 48.149 21.7165 49.082 19.3803C49.5447 18.2105 49.8024 16.9777 49.6128 15.7562C49.518 15.1482 49.3069 14.547 48.9619 13.9863C48.6178 13.4245 48.1423 12.9066 47.5338 12.445C47.4361 12.3718 47.3375 12.3009 47.2381 12.2345C46.0647 11.4419 44.7641 11.1649 43.5036 11.2583C42.2392 11.3495 41.007 11.7863 39.845 12.3909C37.5236 13.6035 35.4553 15.5029 34.0335 16.9609C34.429 17.1218 34.8247 17.2817 35.2205 17.4427C35.2071 16.1761 35.1834 14.9388 34.6928 13.6102C34.1756 12.2142 33.5914 11.1672 32.9237 10.4106C32.2595 9.65626 31.4889 9.19467 30.6759 9.04493C29.8636 8.89405 29.0504 9.05168 28.2877 9.38944C27.522 9.72833 26.7898 10.2473 26.0822 10.8733C24.67 12.1286 23.3512 13.8242 22.2186 15.4747C21.0878 17.1252 20.148 18.7329 19.532 19.7901C19.8675 19.8779 20.203 19.9646 20.5385 20.0524C20.4883 18.6609 20.4357 16.6985 19.831 15.1133C19.5261 14.3218 19.0697 13.6046 18.3577 13.1486C17.6464 12.6893 16.7126 12.5452 15.6085 12.794C14.2449 13.0946 13.113 13.7363 12.1885 14.5864C11.263 15.4375 10.54 16.4925 9.95924 17.6352C8.79969 19.9241 8.19961 22.5778 7.75693 24.7597C7.68274 25.1256 8.33776 25.2641 8.41804 24.9004Z" fill="#9A80E9"/>
</svg>
