<svg width="63" height="63" viewBox="0 0 63 63" fill="none" xmlns="http://www.w3.org/2000/svg">
<path d="M9.64651 39.8657C12.0696 41.2137 14.9232 41.8074 17.9304 41.9789C20.9398 42.1463 24.1168 41.8824 27.2181 41.4066C29.5338 41.0518 31.7706 40.3988 33.8205 39.6596C35.8716 38.9191 37.7407 38.098 39.3496 37.3732C39.8244 37.1596 39.6058 36.3981 39.0897 36.4688C37.3497 36.7066 35.346 36.9466 33.2329 37.2002C31.1186 37.4549 28.9008 37.7284 26.7052 38.0667C23.7611 38.52 20.7923 38.7655 18.1116 38.6253C15.4286 38.4891 13.0507 37.9571 11.2597 36.963C9.65523 36.0738 8.04458 38.9737 9.64651 39.8657Z" fill="#9A80E9"/>
<path d="M11.026 34.5495C22.4085 36.3019 33.9237 34.7858 45.0382 33.0859C45.3161 33.0434 45.2551 32.5531 44.9752 32.5806C33.7915 33.684 22.2751 34.525 11.4483 32.2355C10.8116 32.1013 10.197 32.5422 10.08 33.1814C9.96448 33.8201 10.385 34.4506 11.026 34.5495Z" fill="#9A80E9"/>
<path d="M13.5617 29.0883C20.2434 30.8856 27.0446 31.2444 33.848 31.0284C40.6511 30.8112 47.4606 30.017 54.1685 29.4747C54.4923 29.4484 54.4536 28.8711 54.129 28.8879C47.396 29.234 40.568 29.8264 33.8274 29.8429C27.0871 29.8605 20.4368 29.3007 14.0482 27.3771C13.5789 27.2352 13.0833 27.5164 12.9499 27.9886C12.8151 28.4614 13.0861 28.9609 13.5617 29.0883Z" fill="#9A80E9"/>
</svg>
