<svg width="91" height="79" viewBox="0 0 91 79" fill="none" xmlns="http://www.w3.org/2000/svg">
<path d="M88.1141 46.8447C85.9716 50.6484 83.1261 52.851 80.2519 53.9297C77.3795 55.0058 74.4578 54.938 72.208 54.1292C71.0828 53.7265 70.1304 53.1422 69.4282 52.4502C68.7233 51.7542 68.2672 50.963 68.078 50.0951C67.8921 49.2277 67.9594 48.2586 68.413 47.1435C68.8686 46.0308 69.7275 44.7814 71.1245 43.4539C71.2192 43.3654 71.3147 43.2757 71.4134 43.1866C71.4856 43.1206 71.6748 42.9702 71.9198 42.7989C72.1676 42.6261 72.4766 42.4244 72.822 42.2169C73.5148 41.8016 74.3555 41.3648 75.1442 41.0624C75.5377 40.9112 75.9178 40.7926 76.249 40.7246C76.5802 40.654 76.8596 40.6354 77.0388 40.6553C77.2231 40.6731 77.2817 40.7165 77.293 40.7265C77.3011 40.7409 77.3284 40.7379 77.376 40.9163C77.4784 41.3573 77.4591 41.7786 77.3192 42.2524C77.1777 42.7234 76.905 43.2385 76.5045 43.7721C75.7078 44.8407 74.4097 45.9522 72.9375 46.9597C71.4649 47.9704 69.8227 48.8864 68.3353 49.6419C66.8484 50.3993 65.5205 50.9952 64.6542 51.3822C63.7608 51.7824 62.5463 52.1964 61.2242 52.4988C59.9033 52.8021 58.4727 52.9944 57.1397 52.9776C55.8067 52.9663 54.5819 52.7386 53.6551 52.2803C53.1901 52.0509 52.7966 51.7695 52.4715 51.4249C52.144 51.0787 51.8804 50.6679 51.6824 50.1452C51.4857 49.6233 51.4023 49.0833 51.417 48.5078C51.4334 47.9351 51.5513 47.3272 51.7656 46.7023C52.1941 45.4524 53.0158 44.1413 54.0638 42.9581C55.1104 41.7717 56.3786 40.7094 57.6522 39.9238C58.9237 39.1362 60.2069 38.6323 61.2112 38.5023C61.227 38.5002 61.2365 38.4995 61.2385 38.4992C61.2373 38.4984 61.2408 38.4985 61.2373 38.4984C61.2353 38.4987 61.23 38.4984 61.2233 38.4977C61.1973 38.4961 61.1347 38.4929 61.0361 38.4579C60.9397 38.4249 60.8053 38.3526 60.6898 38.2341C60.5717 38.1194 60.4861 37.9651 60.4475 37.8396C60.4072 37.7113 60.4041 37.6156 60.4065 37.5593C60.4082 37.5014 60.416 37.4794 60.416 37.4794C60.4172 37.4802 60.3874 37.5662 60.3241 37.6851C60.2 37.9301 59.9485 38.3115 59.6241 38.7389C59.2981 39.1686 58.8974 39.6497 58.4638 40.1445C57.5936 41.1361 56.5897 42.1784 55.7484 43.0115C55.3291 43.4275 54.9502 43.7921 54.6493 44.0717C54.5008 44.2098 54.3699 44.3276 54.2692 44.417C54.169 44.5057 54.0911 44.5695 54.0749 44.5801C53.0149 45.3932 51.2506 46.2532 49.2114 46.893C47.1723 47.5381 44.8511 47.9761 42.6429 48.0481C40.4336 48.1246 38.3445 47.8221 36.7613 47.0847C35.9685 46.7179 35.2998 46.2485 34.7642 45.6682C34.2287 45.0861 33.8171 44.3904 33.5478 43.5108C33.4276 43.1061 33.4349 42.6894 33.5952 42.17C33.7565 41.6567 34.0843 41.066 34.5603 40.4613C35.5087 39.2476 37.0282 38.0042 38.6357 37.0155C40.2389 36.024 41.9442 35.277 43.1801 34.9715C43.7905 34.8136 44.288 34.7818 44.4922 34.8155C44.5418 34.8221 44.5724 34.8302 44.5804 34.834C44.5824 34.8336 44.5824 34.8336 44.5824 34.8336C44.5824 34.8336 44.5812 34.8329 44.5782 34.8324C44.5713 34.8294 44.5604 34.8242 44.5467 34.8149C44.4867 34.7845 44.3725 34.6557 44.3432 34.5533C44.4458 34.8468 44.4739 35.0927 44.4567 35.3316C44.4386 35.5716 44.3725 35.8111 44.2403 36.0757C43.9812 36.6034 43.4242 37.2229 42.5921 37.8261C40.9362 39.0448 38.2611 40.162 35.3682 41.0042C32.4728 41.8502 29.3483 42.4459 26.7392 42.7432C25.4365 42.8912 24.2588 42.9661 23.3204 42.9649C22.8516 42.9653 22.4421 42.9451 22.1158 42.9114C21.7903 42.8782 21.5436 42.8251 21.4325 42.7871C18.7945 41.922 17.081 40.755 16.1204 39.5817C15.6369 38.9936 15.3332 38.4042 15.1671 37.8221C15.0014 37.2386 14.9723 36.6564 15.0665 36.0594C15.2557 34.8749 15.9751 33.6057 17.2696 32.4626C18.5586 31.3195 20.4084 30.3233 22.7267 29.7049C22.8929 29.6598 23.0717 29.6035 23.2962 29.5334C23.5176 29.463 23.7751 29.3812 24.0567 29.296C24.6187 29.1249 25.2792 28.9417 25.8939 28.8175C26.5037 28.6898 27.0826 28.6366 27.3685 28.6715C27.4383 28.6777 27.4887 28.6888 27.5112 28.6951C27.5169 28.6972 27.5216 28.6986 27.5227 28.6993C27.5258 28.6997 27.5247 28.6989 27.5258 28.6997C27.5239 28.7001 27.5158 28.6964 27.5002 28.6875C27.4735 28.6712 27.4189 28.632 27.3688 28.5707C27.3179 28.5108 27.2773 28.4308 27.259 28.3678C27.2673 28.4005 27.2717 28.4234 27.2674 28.4745C27.2616 28.5246 27.2444 28.6029 27.1967 28.7126C27.1045 28.9291 26.8813 29.2559 26.5322 29.6086C25.8381 30.3238 24.6776 31.1312 23.401 31.8468C22.1243 32.5659 20.7289 33.2075 19.5336 33.6777C18.9366 33.9132 18.3884 34.1064 17.9411 34.2441C17.495 34.3827 17.1324 34.4648 16.9868 34.4806C14.4635 34.8023 12.4795 34.7048 11.0039 34.3401C9.52287 33.9735 8.56408 33.3636 7.94103 32.6406C7.32123 31.9144 6.99197 31.0354 6.92942 29.951C6.86823 28.8712 7.10275 27.6023 7.63653 26.2639C8.69785 23.5866 10.9559 20.6743 14.0152 18.423C17.073 16.1651 20.9068 14.5603 25.1346 14.336C25.8679 14.2966 26.4312 13.6703 26.3914 12.9367C26.3531 12.2041 25.7268 11.6409 24.9932 11.6807C20.1743 11.9368 15.8573 13.758 12.4347 16.2833C9.01301 18.8154 6.46243 22.0451 5.16655 25.2794C4.52277 26.8995 4.19067 28.5306 4.27322 30.0953C4.35603 31.6548 4.88129 33.1652 5.92441 34.3734C6.96342 35.586 8.47541 36.4585 10.3688 36.9212C12.2671 37.3872 14.5625 37.4667 17.3224 37.1176C17.7405 37.0626 18.1864 36.9473 18.7214 36.7847C19.2525 36.6213 19.8568 36.407 20.5077 36.1507C21.8095 35.6379 23.2973 34.9531 24.7051 34.1613C26.1133 33.3663 27.4342 32.4774 28.4296 31.4688C28.9256 30.9589 29.3468 30.4158 29.6301 29.7768C29.77 29.4561 29.8719 29.1096 29.9097 28.7404C29.9471 28.3716 29.9163 27.9812 29.8031 27.6063C29.7264 27.3467 29.5919 27.0927 29.4201 26.8851C29.2479 26.6755 29.0423 26.5117 28.8369 26.3931C28.4228 26.1553 28.0193 26.0708 27.636 26.0301C26.8707 25.958 26.117 26.0665 25.3667 26.2155C24.62 26.3667 23.891 26.5734 23.2874 26.7557C22.9867 26.8477 22.7168 26.9336 22.4975 27.0019C22.2822 27.0692 22.1082 27.1233 22.0419 27.1412C19.3802 27.853 17.1653 29.0142 15.5123 30.4764C13.8639 31.9346 12.7597 33.714 12.4489 35.6408C12.2959 36.6013 12.3463 37.5909 12.6191 38.5468C12.8916 39.5042 13.3827 40.4236 14.0752 41.2643C15.4671 42.9486 17.635 44.3232 20.6082 45.3001C20.9934 45.4245 21.3929 45.4938 21.8419 45.541C22.2874 45.5877 22.7804 45.6073 23.319 45.6076C24.3944 45.6088 25.6571 45.5252 27.0394 45.3667C29.803 45.0488 33.0441 44.43 36.109 43.5341C39.1755 42.6302 42.0535 41.4696 44.1442 39.9496C45.1884 39.1835 46.0529 38.3161 46.5911 37.251C46.8566 36.7204 47.0315 36.1374 47.0759 35.526C47.122 34.9179 47.0343 34.2886 46.821 33.6834C46.6699 33.2319 46.3322 32.8341 45.9616 32.6043C45.5894 32.3679 45.2047 32.2639 44.8346 32.2144C44.0935 32.1226 43.3511 32.2282 42.5407 32.4278C40.9333 32.8366 39.0657 33.6761 37.2603 34.7892C35.4598 35.9055 33.7382 37.2831 32.5055 38.8503C31.8911 39.6363 31.395 40.4759 31.1066 41.389C30.82 42.2961 30.7562 43.2996 31.0558 44.2702C31.4322 45.5076 32.0545 46.5725 32.853 47.4351C33.6525 48.2985 34.6181 48.9581 35.6722 49.4439C37.7872 50.413 40.2441 50.7182 42.7296 50.6357C45.2165 50.5487 47.7388 50.0642 49.9901 49.3513C52.2414 48.6331 54.2121 47.7032 55.634 46.624C55.7409 46.5416 55.842 46.4542 55.9688 46.3424C56.0948 46.2319 56.238 46.1013 56.3991 45.95C56.7246 45.6476 57.1206 45.2658 57.5559 44.8317C58.43 43.9637 59.465 42.8864 60.3881 41.8307C60.8498 41.3026 61.2833 40.7788 61.6597 40.2805C62.0359 39.7826 62.354 39.317 62.5923 38.8547C62.7124 38.6209 62.8145 38.3897 62.8861 38.1161C62.921 37.9779 62.9475 37.8283 62.9556 37.6556C62.9617 37.4831 62.9467 37.2835 62.8777 37.0653C62.8099 36.8479 62.6785 36.6156 62.4968 36.4357C62.3157 36.2524 62.0976 36.1285 61.8981 36.0591C61.4939 35.92 61.1723 35.9398 60.8676 35.9768C59.3599 36.1869 57.8136 36.8386 56.3164 37.764C54.821 38.6922 53.3837 39.9019 52.1652 41.2845C50.9507 42.6693 49.9515 44.2268 49.3838 45.8862C49.1 46.7158 48.9264 47.574 48.9046 48.4422C48.8828 49.3103 49.0152 50.1901 49.3359 51.0345C49.6465 51.854 50.0994 52.5653 50.6546 53.1482C51.2076 53.7314 51.8592 54.1837 52.5561 54.5247C53.9571 55.2042 55.5314 55.4507 57.1157 55.4661C58.7017 55.4791 60.306 55.2542 61.7813 54.9122C63.2566 54.5702 64.5986 54.1121 65.6647 53.633C66.5352 53.2399 67.9067 52.6198 69.4525 51.829C70.9981 51.0358 72.7225 50.0707 74.3188 48.9685C75.9167 47.8613 77.3934 46.6283 78.4453 45.2205C78.9701 44.5156 79.3902 43.7608 79.633 42.9411C79.8774 42.1243 79.9317 41.2349 79.7195 40.3585C79.5834 39.7664 79.2587 39.2075 78.7882 38.841C78.3204 38.4707 77.7728 38.3094 77.2633 38.2639C76.749 38.2173 76.2497 38.2729 75.7532 38.3771C75.2572 38.4834 74.7655 38.6411 74.2817 38.8298C73.3149 39.2055 72.3774 39.7021 71.5937 40.1739C71.2014 40.4106 70.8489 40.6417 70.5522 40.8518C70.2516 41.0649 70.0111 41.2482 69.8108 41.4305C69.7003 41.5316 69.591 41.6336 69.4852 41.7357C67.9074 43.246 66.8434 44.7665 66.2441 46.269C65.6454 47.7681 65.5278 49.2593 65.8447 50.6022C66.1579 51.9482 66.89 53.1241 67.8789 54.0587C68.8679 54.9956 70.1137 55.7045 71.5052 56.1683C74.2909 57.0947 77.688 57.055 80.9571 55.7307C84.2251 54.4078 87.3414 51.7825 89.522 47.6065C89.9313 46.8226 88.5483 46.0746 88.1141 46.8447Z" fill="#9A80E9"/>
</svg>
